HIERARCHY
ROOT pelvis
{
  OFFSET 0 100 0
  CHANNELS 6 Xposition Yposition Zposition Zrotation Xrotation Yrotation
  JOINT pelvis_right_femur
  {
    OFFSET -10.78128 -3.44521 -0.5502486
    CHANNELS 3 Zrotation Xrotation Yrotation
    JOINT right_femur_tibia
    {
      OFFSET -0.8047443 -44.0398 -0.1307829
      CHANNELS 3 Zrotation Xrotation Yrotation
      JOINT right_tibia_foot
      {
        OFFSET 3.006224 -47.83518 -5
        CHANNELS 3 Zrotation Xrotation Yrotation
        End Site
        {
          OFFSET 0 -5 15
        }
      }
    }
  }
  JOINT pelvis_left_femur
  {
    OFFSET 10.78128 -3.44521 -0.5502486
    CHANNELS 3 Zrotation Xrotation Yrotation
    JOINT left_femur_tibia
    {
      OFFSET 0.8047443 -44.0398 -0.1307829
      CHANNELS 3 Zrotation Xrotation Yrotation
      JOINT left_tibia_foot
      {
        OFFSET -4.370144 -48.10324 -4.275266
        CHANNELS 3 Zrotation Xrotation Yrotation
        End Site
        {
          OFFSET 0 -5 15
        }
      }
    }
  }
  JOINT pelvis_spine1
  {
    OFFSET 0 6.468898 -3.129235
    CHANNELS 3 Zrotation Xrotation Yrotation
    JOINT spine1
    {
      OFFSET 0 23.15396 4.99043
      CHANNELS 3 Zrotation Xrotation Yrotation
      JOINT spine2
      {
        OFFSET 0 20.79997 -5.064912
        CHANNELS 3 Zrotation Xrotation Yrotation
        JOINT neck
        {
          OFFSET 0 14.38658 9.616178
          CHANNELS 3 Zrotation Xrotation Yrotation
          End Site
          {
            OFFSET 0 20 0
          }
        }
      }
      JOINT right_manubrium
      {
        OFFSET -5.722621 16.35077 3.967754
        CHANNELS 3 Zrotation Xrotation Yrotation
        JOINT right_clavicle
        {
          OFFSET -13.16364 1.694482 -4.693211
          CHANNELS 3 Zrotation Xrotation Yrotation
          JOINT right_humerus
          {
            OFFSET -28.5034 -0.3100689 -2.792744
            CHANNELS 3 Zrotation Xrotation Yrotation
            JOINT right_radius
            {
              OFFSET -25.15693 0.02248979 -1.271978
              CHANNELS 3 Zrotation Xrotation Yrotation
              End Site
              {
                OFFSET -15 0 0
              }
            }
          }
        }
      }
      JOINT left_manubrium
      {
        OFFSET 5.722621 16.35077 3.967754
        CHANNELS 3 Zrotation Xrotation Yrotation
        JOINT left_clavicle
        {
          OFFSET 13.16364 1.694482 -4.693211
          CHANNELS 3 Zrotation Xrotation Yrotation
          JOINT left_humerus
          {
            OFFSET 29.39168 -1.063119 -2.237045
            CHANNELS 3 Zrotation Xrotation Yrotation
            JOINT left_radius
            {
              OFFSET 24.59957 -0.9528479 0.9047498
              CHANNELS 3 Zrotation Xrotation Yrotation
              End Site
              {
                OFFSET 15 -0 -0
              }
            }
          }
        }
      }
    }
  }
}
MOTION
Frames: 15
Frame Time: 0.0416666666667
0 103.5113 0 1.292049 -0.7525962 0.08293938 3.092844 -16.1231 10.15904 -0 40.94284 -0 -4.885896 -19.78434 -3.163815 -7.325714 9.797404 -23.75627 -0 6.077343 -0 13.15238 -13.57725 29.23178 -4.061133 -3.918034 4.919584 2.301714 9.717608 -7.169675 1.638503 22.06361 6.494851 2.857662 -23.38808 9.909434 7.456426 -19.30869 11.53642 83.88675 38.9245 -16.32918 -0 0 17.36826 -5.970795 8.442719 3.219845 6.028378 -18.39067 -1.02439 -91.57193 20.77531 19.2307 0 0 -12.87164 15.87804 14.76767 -5.515083
0.3255873 103.7425 1.569772 1.136434 -0.6750617 0.1475973 3.267638 -17.32782 9.677402 -0 39.88052 -0 -5.021168 -18.58286 -2.937033 -7.20667 9.883633 -23.26913 -0 5.90092 -0 12.822 -14.02509 28.72946 -3.913343 -3.657555 4.855336 2.281114 9.783527 -7.167344 1.610356 21.99619 6.596362 2.973882 -23.50746 9.873349 7.267164 -19.29417 11.55663 84.16233 38.57636 -16.57581 -0 0 17.0354 -6.414122 8.476011 3.422056 6.192545 -18.74525 -1.235383 -91.37833 20.72204 19.02914 0 0 -13.56987 15.89356 14.70862 -5.379921
0.6945525 103.6784 3.524817 0.6642534 0.2129752 0.1941096 4.117142 -22.04957 8.481225 -0 34.4697 -0 -4.953114 -15.32811 -2.152115 -7.013802 10.40934 -21.96132 -0 5.155149 -0 11.8233 -16.01731 27.34423 -3.530273 -2.905178 4.904339 2.357178 9.746811 -7.208375 1.567731 21.61079 6.919582 3.325186 -24.22752 9.904104 6.702103 -19.25611 11.50124 84.99252 37.89616 -17.66309 -0 0 16.06913 -6.973267 8.412366 3.660247 6.890971 -19.8071 -1.598835 -91.07791 21.13381 18.72642 0 0 -16.48056 15.55043 14.40962 -4.409148
1.074482 103.3593 5.855635 0.3458798 1.120417 0.2637516 4.8329 -25.94824 7.572493 -0 29.21479 -0 -4.93716 -12.66889 -1.580335 -6.925663 11.15086 -20.84409 -0 4.89126 -0 11.07589 -17.75125 26.1787 -3.326324 -2.408822 4.918966 2.513956 9.660158 -7.316882 1.546663 21.30165 7.100626 3.538524 -24.84598 9.9107 6.208486 -19.11988 11.40492 85.80747 37.43136 -18.79434 -0 0 15.04277 -7.219685 8.282085 3.803311 7.403142 -20.67989 -1.787784 -90.75482 21.6027 18.32106 0 0 -19.06614 15.11674 14.10337 -3.490257
1.433595 102.8175 8.669334 0.06964517 1.966294 0.382294 5.463261 -29.59851 6.495069 -0 23.65449 -0 -5.205051 -9.652338 -1.087696 -6.828041 12.20095 -19.46288 -0 5.285373 -0 10.26715 -19.37963 24.75342 -3.163187 -2.010544 4.780192 2.712271 9.60818 -7.493619 1.52019 21.07687 7.179539 3.662823 -25.33908 9.820258 5.604168 -18.83706 11.28524 86.85489 36.76442 -20.12063 -0 0 13.62741 -7.637009 8.119833 4.076714 7.78176 -21.62296 -2.005995 -90.16241 21.95557 17.52461 0 0 -21.68959 14.65207 13.76265 -2.632168
1.739638 102.1336 12.04425 -0.1861868 2.675866 0.5745823 6.025133 -32.54736 5.42175 -0 18.52322 -0 -5.739082 -6.63053 -0.74284 -6.706577 13.46337 -17.95424 -0 6.60996 -0 9.314719 -20.66252 23.13741 -2.986055 -1.76503 4.492513 2.923835 9.575512 -7.722936 1.493266 20.9556 7.146634 3.672956 -25.65949 9.652342 4.954883 -18.42608 11.13481 88.00842 35.94422 -21.50076 -0 0 12.0038 -8.115239 7.934732 4.406404 7.954294 -22.49029 -2.219225 -89.44459 22.24232 16.53667 0 0 -23.98429 14.07837 13.44749 -1.764459
1.965181 101.4188 16.05137 -0.4752583 3.123709 0.8595313 6.535309 -34.47179 4.388313 -0 14.4305 -0 -6.549622 -3.80507 -0.5697619 -6.498298 14.79903 -16.34649 -0 9.154874 -0 8.037621 -21.3515 21.25531 -2.689214 -1.661578 4.042231 3.095031 9.559105 -7.964913 1.463178 20.9665 7.022336 3.566175 -25.73729 9.425938 4.276003 -17.89276 10.95722 89.17625 34.90294 -22.7783 -0 0 10.29028 -8.711249 7.782872 4.781172 7.880323 -23.19278 -2.461255 -88.68835 22.43528 15.4812 0 0 -25.64553 13.38839 13.22241 -0.8886015
2.096776 100.8138 20.71913 -0.8475515 3.201639 1.233072 7.027525 -35.03457 3.505998 -0 12.02449 -0 -7.565324 -1.56834 -0.5939486 -6.132599 15.94794 -14.75935 -0 13.1306 -0 6.285598 -21.15637 19.10737 -2.169756 -1.667572 3.466621 3.166547 9.535442 -8.155482 1.426193 21.12056 6.857001 3.364304 -25.52992 9.191627 3.628342 -17.26546 10.76691 90.1991 33.68699 -23.74145 -0 0 8.70556 -9.416692 7.750104 5.146851 7.545071 -23.60026 -2.746598 -88.06074 22.55499 14.59369 0 0 -26.32361 12.58168 13.1596 -0.001343278
2.140964 100.4656 26.00875 -1.322049 2.830595 1.648106 7.50232 -34.02616 2.845968 -0 11.63979 -0 -8.673529 -0.3232485 -0.8251728 -5.549289 16.57021 -13.32473 -0 18.62701 -0 4.007875 -19.83939 16.76308 -1.369953 -1.716296 2.850853 3.089674 9.477989 -8.221611 1.374918 21.41519 6.717584 3.115065 -25.03349 9.00006 3.074748 -16.5848 10.59436 90.9395 32.40004 -24.21569 -0 0 7.450605 -10.2216 7.931506 5.45609 6.980193 -23.62591 -3.087893 -87.71533 22.6506 14.0909 0 0 -25.8141 11.68499 13.32177 0.8903175
2.123068 100.4989 31.79411 -1.852787 2.005154 2.002004 7.901327 -31.45494 2.41191 -0 13.04184 -0 -9.755535 -0.3472248 -1.243371 -4.753783 16.29484 -12.15756 -0 25.58497 -0 1.371943 -17.34584 14.43364 -0.3429754 -1.724706 2.335284 2.854675 9.380395 -8.113867 1.30585 21.82673 6.65157 2.886136 -24.30637 8.86629 2.670985 -15.91132 10.48263 91.32785 31.21599 -24.14118 -0 0 6.647314 -11.08651 8.378342 5.680655 6.267803 -23.28271 -3.477985 -87.74106 22.78944 14.09605 0 0 -24.19172 10.75365 13.73218 1.774406
2.0749 100.9886 37.86764 -2.315782 0.8085507 2.152665 8.115304 -27.56834 2.127701 -0 15.34134 -0 -10.74725 -1.605491 -1.777131 -3.864554 14.79375 -11.29858 -0 33.81688 -0 -1.202084 -13.94128 12.46181 0.7096536 -1.620158 2.094153 2.506484 9.293429 -7.838446 1.232535 22.31163 6.640409 2.749218 -23.4602 8.73382 2.44587 -15.33568 10.47465 91.38537 30.33668 -23.60522 -0 0 6.297325 -11.95177 9.042034 5.83298 5.520161 -22.72185 -3.887321 -88.11807 22.99825 14.57677 0 0 -21.84895 9.875171 14.34249 2.619536
2.019076 101.9438 43.97971 -2.534994 -0.6053292 1.975323 8.035205 -22.75658 1.882825 -0 17.27628 -0 -11.64632 -3.664943 -2.294683 -3.097957 11.83562 -10.69041 -0 42.93094 -0 -3.155831 -10.25094 11.20789 1.474242 -1.363896 2.290662 2.128284 9.337739 -7.453653 1.191067 22.80687 6.58856 2.759566 -22.62396 8.485518 2.39468 -14.9906 10.59784 91.17932 29.93257 -22.76972 -0 0 6.344571 -12.76196 9.763416 5.971871 4.843327 -22.18449 -4.271496 -88.74278 23.19951 15.40299 0 0 -19.34092 9.15535 15.00442 3.358894
1.963215 103.2965 49.9004 -2.348392 -2.060531 1.441954 7.606464 -17.39134 1.596655 -0 17.79111 -0 -12.43377 -5.828399 -2.628234 -2.652423 7.331219 -10.19762 -0 52.03685 -0 -4.027926 -7.083718 10.88191 1.653953 -0.9617803 3.007287 1.791645 9.646185 -7.017122 1.21751 23.23449 6.38408 2.927838 -21.89521 8.01991 2.476271 -15.03442 10.85587 90.74565 30.05945 -21.72534 -0 0 6.792764 -13.50242 10.34544 6.189119 4.312554 -21.86962 -4.587326 -89.50011 23.19896 16.48625 0 0 -17.12328 8.686412 15.4758 3.888762
1.906616 104.8823 55.47705 -1.706382 -3.396788 0.6676195 6.87962 -11.75282 1.276566 -0 16.57745 -0 -12.99634 -7.494918 -2.647 -2.535752 1.42577 -9.647682 -0 59.41108 -0 -3.682179 -5.063245 11.45437 1.144315 -0.4675674 4.164983 1.51216 10.24475 -6.53614 1.302464 23.51517 5.996174 3.190647 -21.31065 7.342629 2.611159 -15.58712 11.22746 90.04772 30.59876 -20.39552 -0 0 7.747504 -14.20346 10.67606 6.576077 3.975182 -21.81217 -4.800874 -90.30943 22.77861 17.84793 0 0 -15.39533 8.511468 15.50683 4.105669
1.849647 106.433 60.66319 -0.7724326 -4.466713 -0.1409384 6.056125 -6.113177 1.028821 -0 14.17148 -0 -13.18796 -8.541667 -2.366199 -2.45925 -5.379456 -8.857671 -0 62.70665 -0 -2.39161 -4.296894 12.70985 0.1513011 0.02156764 5.481897 1.259518 10.97731 -5.994814 1.373026 23.59269 5.507547 3.407113 -20.85857 6.582082 2.69097 -16.65747 11.66002 89.0137 31.28407 -18.5945 -0 0 9.318541 -14.90293 10.80263 7.197371 3.8552 -21.88067 -4.877356 -91.10737 21.86871 19.51823 0 0 -14.13621 8.594414 15.00916 3.991898
